Coordinates
version=1
nRows=41
nColumns=38
inDegrees=no

Units are S.I. units (second, meters, Newtons, ...)
If the header above contains a line with 'inDegrees', this indicates whether rotational values are in degrees (yes) or radians (no).

endheader
time	pelvis_tilt	pelvis_list	pelvis_rotation	pelvis_tx	pelvis_ty	pelvis_tz	hip_flexion_r	hip_adduction_r	hip_rotation_r	knee_angle_r	ankle_angle_r	subtalar_angle_r	mtp_angle_r	hip_flexion_l	hip_adduction_l	hip_rotation_l	knee_angle_l	ankle_angle_l	subtalar_angle_l	mtp_angle_l	lumbar_extension	lumbar_bending	lumbar_rotation	arm_flex_r	arm_add_r	arm_rot_r	elbow_flex_r	pro_sup_r	wrist_flex_r	wrist_dev_r	arm_flex_l	arm_add_l	arm_rot_l	elbow_flex_l	pro_sup_l	wrist_flex_l	wrist_dev_l
0.57	1.68388	1.47596	-0.17006	0.748536	0.00104383	0.930087	0.481255	0.00671358	-0.306272	0.323391	0.115528	0	0	-0.184353	-0.00562283	-0.2609	0.0914902	0.234054	0	0	-0.110656	0.106587	0.15242	0.0479337	-0.326722	0.690535	0.381372	0.939624	0	0	0.140781	-0.139247	0.375451	0.201737	1.47207	0	0
0.58	1.61541	1.47372	-0.103891	0.750248	0.0101538	0.928211	0.471404	0.026114	-0.295376	0.258021	0.11679	0	0	-0.190837	-0.00960806	-0.267054	0.0888683	0.241366	0	0	-0.104686	0.109596	0.15584	0.0469434	-0.32477	0.692898	0.379266	0.936265	0	0	0.141583	-0.14115	0.390396	0.201454	1.46273	0	0
0.59	1.55858	1.47094	-0.0487789	0.751847	0.0196301	0.926377	0.458596	0.0449298	-0.278745	0.194815	0.112264	0	0	-0.1985	-0.0135799	-0.272941	0.086356	0.248503	0	0	-0.0986075	0.11311	0.158817	0.044463	-0.323391	0.693967	0.378361	0.934801	0	0	0.142123	-0.142139	0.403665	0.199106	1.45478	0	0
0.6	1.51624	1.46817	-0.00616361	0.753056	0.0294881	0.924553	0.445349	0.0602326	-0.265177	0.14096	0.103208	0	0	-0.207793	-0.0170365	-0.276391	0.0833523	0.254972	0	0	-0.092719	0.117106	0.159687	0.0409407	-0.323375	0.696822	0.379125	0.932014	0	0	0.140573	-0.143512	0.418027	0.199883	1.44289	0	0
0.61	1.48804	1.46593	0.0231442	0.754103	0.0395189	0.922777	0.436154	0.0713138	-0.262549	0.105713	0.0949093	0	0	-0.217878	-0.0199279	-0.279147	0.0815014	0.260853	0	0	-0.0877679	0.120713	0.159727	0.0370786	-0.324025	0.70048	0.380663	0.927366	0	0	0.13826	-0.145024	0.431584	0.201511	1.42865	0	0
0.62	1.4679	1.46431	0.0446297	0.755055	0.0496657	0.92105	0.432703	0.0786944	-0.271449	0.0913423	0.0912825	0	0	-0.227818	-0.022358	-0.28214	0.0816038	0.266265	0	0	-0.0834002	0.123872	0.159511	0.0328937	-0.325217	0.703834	0.383023	0.922644	0	0	0.135461	-0.146268	0.442313	0.203112	1.41694	0	0
0.63	1.45739	1.46289	0.0569918	0.755853	0.0600011	0.919443	0.432889	0.0833584	-0.287449	0.0945915	0.091549	0	0	-0.23822	-0.024724	-0.284796	0.0830014	0.270655	0	0	-0.0798423	0.127199	0.158564	0.0284591	-0.326132	0.703808	0.384395	0.921975	0	0	0.132447	-0.146305	0.444711	0.20313	1.4156	0	0
0.64	1.45709	1.4616	0.0606689	0.756268	0.0706696	0.917949	0.434619	0.0849118	-0.308655	0.111542	0.0931713	0	0	-0.249766	-0.0269005	-0.285829	0.0846392	0.274641	0	0	-0.0765728	0.131241	0.155726	0.0232806	-0.327944	0.704278	0.386475	0.921566	0	0	0.12818	-0.14595	0.447173	0.203911	1.41408	0	0
0.65	1.46773	1.46138	0.0551461	0.756305	0.0815825	0.916626	0.437025	0.0822251	-0.332892	0.139795	0.0951677	0	0	-0.261627	-0.0284655	-0.284951	0.0882293	0.277672	0	0	-0.0741325	0.134877	0.1507	0.0180617	-0.330501	0.705542	0.389181	0.921417	0	0	0.123338	-0.14511	0.448559	0.204853	1.41203	0	0
0.66	1.4845	1.46158	0.0448092	0.756162	0.0926968	0.915466	0.43793	0.0777082	-0.353653	0.169994	0.097008	0	0	-0.273069	-0.0304688	-0.283386	0.0938732	0.279855	0	0	-0.0719768	0.138398	0.143908	0.012925	-0.333275	0.707258	0.391951	0.921422	0	0	0.117558	-0.144257	0.448375	0.206618	1.40957	0	0
0.67	1.50261	1.46108	0.0343181	0.756043	0.10393	0.914464	0.43602	0.0745473	-0.367899	0.194021	0.0974996	0	0	-0.282747	-0.0345337	-0.281665	0.103071	0.282455	0	0	-0.0695628	0.142651	0.135621	0.00791943	-0.335949	0.709032	0.394725	0.921242	0	0	0.11096	-0.143716	0.446955	0.209912	1.40733	0	0
0.68	1.51846	1.45964	0.027218	0.755955	0.115265	0.913613	0.431263	0.0738568	-0.374066	0.207607	0.0921645	0	0	-0.289759	-0.0409952	-0.27944	0.116895	0.284582	0	0	-0.0664922	0.148016	0.12599	0.00269035	-0.338602	0.71008	0.397642	0.919884	0	0	0.103532	-0.143303	0.444254	0.213909	1.40544	0	0
0.69	1.52456	1.45713	0.0296769	0.756107	0.126734	0.912888	0.425499	0.0763589	-0.371267	0.212068	0.0718404	0	0	-0.291781	-0.0504254	-0.278946	0.138856	0.288136	0	0	-0.062077	0.154522	0.11537	-0.00228344	-0.341579	0.714555	0.401239	0.916141	0	0	0.0938217	-0.143429	0.43619	0.220368	1.4022	0	0
0.7	1.51066	1.45414	0.0505932	0.756565	0.138182	0.912157	0.422781	0.0797614	-0.364799	0.215129	0.0376035	0	0	-0.288807	-0.0610922	-0.279422	0.165515	0.291502	0	0	-0.0553365	0.161299	0.106257	-0.00780812	-0.344711	0.718953	0.405205	0.913035	0	0	0.0843831	-0.142612	0.424648	0.224877	1.40217	0	0
0.71	1.4901	1.45116	0.0765964	0.757211	0.149617	0.911527	0.424577	0.0806923	-0.363026	0.22691	0.00959572	0	0	-0.28393	-0.0714909	-0.279626	0.193195	0.291823	0	0	-0.0477787	0.167861	0.099354	-0.0140838	-0.347408	0.719247	0.408397	0.912861	0	0	0.0760849	-0.141179	0.418048	0.227093	1.4028	0	0
0.72	1.47202	1.44787	0.0998159	0.757992	0.161041	0.911115	0.429884	0.0790644	-0.366592	0.249786	-0.00309414	0	0	-0.275605	-0.0834424	-0.279587	0.227641	0.290561	0	0	-0.0405182	0.174526	0.0926044	-0.0201089	-0.350208	0.719831	0.411853	0.912987	0	0	0.067975	-0.139674	0.411357	0.229433	1.40332	0	0
0.73	1.4632	1.44445	0.113152	0.758833	0.172543	0.911055	0.437498	0.0749091	-0.374693	0.283354	-0.00602268	0	0	-0.265399	-0.0965405	-0.279349	0.267337	0.286397	0	0	-0.0344466	0.181369	0.0863311	-0.0258225	-0.353108	0.720587	0.415128	0.91298	0	0	0.0601717	-0.137734	0.403523	0.231185	1.40407	0	0
0.74	1.46461	1.44027	0.116068	0.759586	0.184064	0.911432	0.444526	0.0702427	-0.383441	0.320787	-0.00604957	0	0	-0.253555	-0.111249	-0.278476	0.311655	0.278427	0	0	-0.0299599	0.189444	0.080059	-0.0308625	-0.356438	0.721756	0.418079	0.912548	0	0	0.0526186	-0.134807	0.39303	0.232868	1.40581	0	0
0.75	1.47747	1.43482	0.106858	0.760425	0.195596	0.912331	0.446926	0.0686144	-0.388645	0.352983	-0.00495809	0	0	-0.240027	-0.128423	-0.277803	0.36113	0.265228	0	0	-0.0273745	0.199001	0.0745564	-0.0352505	-0.360118	0.72276	0.421145	0.911864	0	0	0.0452759	-0.131417	0.382368	0.234219	1.4096	0	0
0.76	1.47787	1.42812	0.109011	0.761584	0.207041	0.913348	0.447528	0.0705275	-0.392353	0.377692	-0.00240481	0	0	-0.218909	-0.149023	-0.278358	0.420509	0.247601	0	0	-0.0229971	0.209345	0.0696645	-0.0387702	-0.363683	0.726986	0.423773	0.910843	0	0	0.0376536	-0.127811	0.367919	0.233746	1.42182	0	0
0.77	1.47221	1.42229	0.114667	0.763401	0.218387	0.914456	0.446558	0.0734304	-0.398799	0.397873	-0.000328369	0	0	-0.193244	-0.170133	-0.280264	0.484597	0.220546	0	0	-0.0181705	0.217568	0.0676049	-0.0416394	-0.365206	0.730836	0.424145	0.909787	0	0	0.0303304	-0.125635	0.351689	0.234789	1.43562	0	0
0.78	1.45092	1.41645	0.134632	0.765723	0.229601	0.915359	0.442982	0.0802902	-0.402659	0.406596	-0.00139377	0	0	-0.160249	-0.192829	-0.282054	0.554552	0.184359	0	0	-0.01068	0.224533	0.0666974	-0.0442821	-0.365375	0.73552	0.423447	0.908717	0	0	0.0222866	-0.125093	0.334992	0.239117	1.44633	0	0
0.79	1.41938	1.41071	0.164286	0.768349	0.240666	0.916028	0.436618	0.0910253	-0.401501	0.404499	-0.003909	0	0	-0.121879	-0.216018	-0.281589	0.627255	0.138802	0	0	-0.00111161	0.230357	0.0662915	-0.0467852	-0.36526	0.743023	0.422974	0.903855	0	0	0.0145491	-0.125375	0.317688	0.243013	1.45879	0	0
0.8	1.38004	1.40648	0.20166	0.771061	0.251548	0.916354	0.433774	0.0970109	-0.409602	0.408873	-0.00158682	0	0	-0.0792439	-0.236427	-0.275534	0.700692	0.0834683	0	0	0.0100926	0.233504	0.066541	-0.0497716	-0.364957	0.750793	0.423008	0.897463	0	0	0.00733036	-0.127001	0.305117	0.246599	1.46894	0	0
0.81	1.35094	1.40061	0.228777	0.773791	0.262219	0.916749	0.422122	0.112618	-0.399878	0.394114	-0.00325143	0	0	-0.035567	-0.258053	-0.266068	0.773611	0.0204665	0	0	0.0199157	0.238279	0.0676605	-0.0527187	-0.365868	0.75964	0.424604	0.887728	0	0	0.00114332	-0.128519	0.293162	0.250308	1.47971	0	0
0.82	1.33236	1.39699	0.244064	0.776488	0.272587	0.917193	0.412956	0.122091	-0.397814	0.390649	0.000511699	0	0	0.00666849	-0.275705	-0.254297	0.843677	-0.0476248	0	0	0.0264507	0.240838	0.0715056	-0.0557614	-0.366351	0.76221	0.425966	0.883648	0	0	-0.00281119	-0.13039	0.288409	0.252803	1.48324	0	0
0.83	1.32227	1.39318	0.251354	0.778995	0.282565	0.917763	0.403628	0.131375	-0.394099	0.388889	0.00572654	0	0	0.0498789	-0.291981	-0.238111	0.912896	-0.117918	0	0	0.0306009	0.243983	0.075549	-0.0581765	-0.367938	0.764781	0.4286	0.87963	0	0	-0.00538072	-0.131842	0.284136	0.255243	1.48628	0	0
0.84	1.33282	1.37861	0.23436	0.781558	0.291448	0.919411	0.388234	0.153214	-0.396507	0.373622	-0.000684581	0	0	0.0937718	-0.319714	-0.222257	0.981159	-0.18791	0	0	0.0294632	0.261153	0.084277	-0.0580273	-0.374589	0.770465	0.434053	0.869926	0	0	-0.00359275	-0.127812	0.275163	0.252733	1.49296	0	0
0.85	1.35362	1.3893	0.214864	0.783238	0.301599	0.920219	0.375705	0.146543	-0.379908	0.386945	0.0199647	0	0	0.125215	-0.314008	-0.200813	1.03656	-0.241892	0	0	0.0245187	0.249216	0.0862548	-0.0604619	-0.374763	0.770993	0.438956	0.867255	0	0	-0.0045477	-0.132033	0.272362	0.256569	1.49529	0	0
0.86	1.38373	1.39163	0.181663	0.785092	0.310732	0.921922	0.360138	0.148037	-0.374299	0.391052	0.0296263	0	0	0.156464	-0.315384	-0.181489	1.08834	-0.275282	0	0	0.0164075	0.247678	0.0935221	-0.0607213	-0.377793	0.771815	0.444071	0.864168	0	0	-0.00298741	-0.132671	0.270168	0.260368	1.49719	0	0
0.87	1.42177	1.38373	0.136569	0.787211	0.319137	0.924485	0.338309	0.161036	-0.377178	0.380006	0.025952	0	0	0.187785	-0.328168	-0.164856	1.13849	-0.281641	0	0	0.00577559	0.258281	0.105442	-0.0594933	-0.384314	0.775827	0.45065	0.853454	0	0	0.00153151	-0.128914	0.26593	0.259335	1.50348	0	0
0.88	1.44797	1.38742	0.107253	0.788926	0.328032	0.926298	0.320807	0.160895	-0.370683	0.379323	0.0338812	0	0	0.21988	-0.324753	-0.145	1.18786	-0.257715	0	0	-0.00169721	0.254652	0.112717	-0.0594907	-0.386281	0.77739	0.454437	0.848461	0	0	0.0040608	-0.128722	0.263835	0.26011	1.50752	0	0
0.89	1.46768	1.40337	0.0882225	0.790389	0.337474	0.92729	0.308267	0.147209	-0.355432	0.390517	0.0537409	0	0	0.251226	-0.305058	-0.124921	1.23435	-0.221185	0	0	-0.00608868	0.23608	0.115315	-0.0605417	-0.383126	0.777772	0.455241	0.847029	0	0	0.00450649	-0.132535	0.263244	0.263133	1.50886	0	0
0.9	1.48879	1.4089	0.0647531	0.792064	0.346094	0.929102	0.291047	0.144614	-0.351946	0.387462	0.0607777	0	0	0.284257	-0.29729	-0.10688	1.27746	-0.187026	0	0	-0.0121195	0.229783	0.121182	-0.0589517	-0.380218	0.775927	0.451289	0.844544	0	0	0.0065423	-0.132491	0.262462	0.264964	1.51004	0	0
0.91	1.53011	1.41416	0.0205814	0.793831	0.354768	0.931308	0.267952	0.143803	-0.346536	0.378769	0.0651178	0	0	0.311418	-0.288315	-0.0898755	1.31281	-0.160782	0	0	-0.0213511	0.223683	0.127771	-0.0560514	-0.375156	0.772542	0.442888	0.844339	0	0	0.00996684	-0.131628	0.261163	0.26345	1.51076	0	0
0.92	1.57159	1.41876	-0.0233904	0.795528	0.363239	0.933442	0.244782	0.143262	-0.342057	0.368652	0.0685705	0	0	0.337151	-0.279897	-0.0754783	1.34161	-0.141832	0	0	-0.0301746	0.218159	0.134434	-0.0529156	-0.369556	0.767128	0.433316	0.846249	0	0	0.015085	-0.129776	0.258783	0.258452	1.51352	0	0
0.93	1.61228	1.4229	-0.0665051	0.797198	0.371445	0.935502	0.222032	0.142596	-0.338238	0.357476	0.0714143	0	0	0.362282	-0.272125	-0.0635273	1.36532	-0.127697	0	0	-0.0388455	0.212953	0.141445	-0.0491621	-0.363556	0.760963	0.422745	0.849576	0	0	0.0213417	-0.127379	0.255197	0.252823	1.51875	0	0
0.94	1.64883	1.4265	-0.106138	0.798889	0.379534	0.937468	0.200156	0.142225	-0.333601	0.345547	0.0719677	0	0	0.386879	-0.264956	-0.0537448	1.3844	-0.114915	0	0	-0.0466017	0.208253	0.149235	-0.0452065	-0.357456	0.754289	0.411332	0.854001	0	0	0.0280182	-0.124674	0.252066	0.246172	1.52589	0	0
0.95	1.68099	1.4302	-0.142161	0.800628	0.387492	0.939339	0.179798	0.141299	-0.328109	0.334475	0.071788	0	0	0.410793	-0.257751	-0.0460951	1.39854	-0.102669	0	0	-0.0534333	0.20337	0.157854	-0.0415858	-0.352274	0.747661	0.401599	0.858395	0	0	0.0345523	-0.122331	0.250995	0.241007	1.53231	0	0
0.96	1.71174	1.43447	-0.177475	0.80236	0.395311	0.941133	0.160917	0.139105	-0.321806	0.324865	0.072264	0	0	0.43347	-0.250095	-0.0408453	1.40736	-0.0915143	0	0	-0.059772	0.197855	0.167082	-0.0386532	-0.348329	0.740368	0.39454	0.864099	0	0	0.0409899	-0.120621	0.25267	0.237406	1.53683	0	0
0.97	1.73823	1.43878	-0.209228	0.804089	0.402976	0.942806	0.143556	0.136562	-0.315345	0.316045	0.0729646	0	0	0.455259	-0.242916	-0.0372871	1.41159	-0.0778934	0	0	-0.0652683	0.192365	0.176813	-0.0364444	-0.346029	0.732285	0.390674	0.869393	0	0	0.0474302	-0.119573	0.257169	0.233807	1.5391	0	0
